<svg width="116" height="82" viewBox="0 0 116 82" fill="none" xmlns="http://www.w3.org/2000/svg">
<path d="M86.4167 48.6667C86.4167 54.8854 83.4463 60.4401 78.7843 64.1094C74.2729 68.4481 68.1229 71.3334 61.2917 71.3334C50.2115 71.3334 45.9208 68.3814 42.6015 65.2401C42.5847 65.2241 42.5652 65.2081 42.5484 65.1921C42.54 65.1841 42.5289 65.1761 42.5205 65.1654L42.5233 65.1574C42.0515 64.6801 41.75 64.0428 41.75 63.3334C41.75 61.8614 43.0007 60.6668 44.5417 60.6668H50.5326C48.4472 57.3228 47.3333 53.1761 47.3333 48.6667C47.3333 48.2081 47.3613 47.7601 47.3836 47.3094L47.3333 47.3334C38.9583 47.3334 33.375 36.6667 33.375 31.3334C33.375 29.8614 34.6257 28.6667 36.1667 28.6667C36.1667 28.6667 64.985 28.6667 65.4792 28.6667C76.5844 28.6667 85.6462 36.9307 86.3469 47.3708C86.3469 47.3708 86.4167 48.4321 86.4167 48.6667Z" fill="#8D6E63"/>
<path opacity="0.3" d="M43.8438 35.3334C43.8438 34.2294 44.7818 33.3334 45.9375 33.3334C47.0933 33.3334 48.0312 34.2294 48.0312 35.3334C48.0312 36.4374 47.0933 37.3334 45.9375 37.3334C44.7818 37.3334 43.8438 36.4374 43.8438 35.3334ZM64.0833 60.6668C64.1029 59.2988 64.5998 52.6668 72.4583 52.6668V47.3334C61.4173 47.3334 58.5 56.0561 58.5 60.6668H44.5417C43.0063 60.6668 41.75 61.8668 41.75 63.3334C41.75 64.0508 42.0571 64.6668 42.5317 65.1468V65.1761C42.5317 65.1761 42.5317 65.1761 42.5596 65.2028L42.5875 65.2294C45.9096 68.3734 50.2087 71.3334 61.2917 71.3334C68.1313 71.3334 74.2729 68.4534 78.7926 64.1068C80.0796 63.0934 81.2214 61.9468 82.2292 60.6668H64.0833ZM36.1667 28.6667C34.6313 28.6667 33.375 29.8667 33.375 31.3334C33.375 32.0801 33.4867 32.9334 33.71 33.8401C34.045 33.9467 34.4079 34.0001 34.7708 34.0001C37.0879 34.0001 38.9583 32.2134 38.9583 30.0001C38.9583 29.5201 38.8746 29.0934 38.7071 28.6667C37.1437 28.6667 36.1667 28.6667 36.1667 28.6667Z" fill="black"/>
<path d="M7.64824 28.1289L7.18262 26.9259L3.08863 19.3174L2.34122 18.266L6.51179 16.0219C7.4605 15.5114 8.3282 15.3231 9.1149 15.457C9.90593 15.5765 10.5264 16.0542 10.9762 16.8902C11.2542 17.4068 11.3675 17.9212 11.316 18.4334C11.274 18.9405 10.9971 19.4165 10.4855 19.8614L10.5613 20.0023C11.1668 19.8219 11.7538 19.821 12.3223 19.9996C12.8951 20.1637 13.3837 20.6215 13.7881 21.373C14.1267 22.0023 14.266 22.5876 14.2058 23.1286C14.1407 23.6603 13.9191 24.149 13.5411 24.5946C13.1632 25.0403 12.6595 25.4324 12.0302 25.771L7.64824 28.1289ZM8.85407 25.3724L10.2771 24.6067C11.0004 24.2175 11.4669 23.8575 11.6765 23.5267C11.8861 23.1959 11.8595 22.7862 11.5966 22.2978C11.3338 21.8093 11.0016 21.5521 10.5999 21.5259C10.2076 21.4948 9.64515 21.6763 8.91248 22.0705L7.48941 22.8362L8.85407 25.3724ZM6.60996 21.2018L7.86395 20.5271C8.43694 20.2188 8.8546 19.9032 9.11694 19.5803C9.37422 19.2481 9.3664 18.8284 9.09347 18.3211C8.82054 17.8139 8.47456 17.5761 8.05553 17.6078C7.63146 17.63 7.13293 17.7953 6.55994 18.1036L5.30595 18.7784L6.60996 21.2018Z" fill="black"/>
<path d="M17.0856 18.6602C16.7043 17.6869 16.5597 16.8499 16.6519 16.1494C16.75 15.435 17.0217 14.8417 17.4667 14.3695C17.9178 13.8834 18.491 13.5042 19.1862 13.2319C19.9808 12.9206 20.6897 12.8147 21.3129 12.9142C21.9323 13.0038 22.4623 13.2601 22.903 13.6832C23.3437 14.1062 23.6982 14.6604 23.9667 15.3457C24.0523 15.5642 24.1241 15.7766 24.1821 15.9831C24.24 16.1895 24.3047 16.4276 24.376 16.6975L18.7895 18.8862L18.6144 18.4393L19.5816 16.9606L22.0248 16.0034C21.8692 15.6061 21.698 15.3008 21.5114 15.0876C21.3208 14.8644 21.088 14.7379 20.8129 14.7082C20.5339 14.6686 20.1808 14.7325 19.7538 14.8998C19.3764 15.0476 19.0987 15.2309 18.9209 15.4495C18.7391 15.6581 18.6559 15.9428 18.6712 16.3034C18.6964 16.6601 18.8257 17.1364 19.0592 17.7323C19.2615 18.2488 19.4666 18.6553 19.6744 18.9519C19.8784 19.2386 20.0979 19.4333 20.3329 19.536C20.5778 19.6348 20.8559 19.6576 21.1673 19.6043C21.4886 19.5472 21.8578 19.4369 22.2749 19.2735C22.6225 19.1373 22.9574 18.9832 23.2795 18.8112C23.5977 18.6292 23.9094 18.3868 24.2147 18.0839L24.571 18.1162L25.1663 19.6357C24.931 19.8539 24.6482 20.0678 24.3179 20.2774C23.9876 20.487 23.5444 20.7008 22.9882 20.9187C22.4022 21.1482 21.8247 21.3115 21.2555 21.4085C20.6962 21.5015 20.1585 21.4888 19.6424 21.3703C19.1323 21.2379 18.6569 20.9602 18.2162 20.5371C17.7815 20.1002 17.4047 19.4746 17.0856 18.6602Z" fill="black"/>
<path d="M33.6602 17.2634L33.1246 16.1981L32.1546 12.5985C32.0574 12.238 31.9395 11.9439 31.8008 11.7161C31.6724 11.4856 31.4525 11.346 31.1411 11.2973C30.8372 11.2356 30.3763 11.288 29.7584 11.4545C29.4082 11.5489 29.0818 11.67 28.7792 11.8178C28.4841 11.9526 28.1809 12.1393 27.8695 12.3778L27.5189 12.3066L27.1026 10.7617C27.5142 10.4851 27.9255 10.2693 28.3367 10.1143C28.7478 9.95932 29.1079 9.84019 29.4169 9.75693C30.4571 9.4766 31.2886 9.3851 31.9114 9.48241C32.5417 9.56664 33.0302 9.82165 33.3769 10.2474C33.7209 10.6629 33.99 11.2311 34.1843 11.9521L35.1501 15.5362L35.6068 16.7388L33.6602 17.2634ZM31.5473 18.0316C31.0633 18.1621 30.5701 18.2176 30.0678 18.1983C29.573 18.166 29.1263 18.0046 28.7277 17.7144C28.3263 17.4138 28.0326 16.9185 27.8467 16.2284C27.6968 15.6722 27.6753 15.203 27.7822 14.8207C27.8966 14.4253 28.0912 14.1022 28.3661 13.8514C28.6409 13.6006 28.962 13.398 29.3292 13.2439C29.6936 13.0794 30.0612 12.9472 30.432 12.8473C30.607 12.8001 30.799 12.7539 31.0077 12.7087C31.2137 12.6532 31.4276 12.6066 31.6495 12.5689L33.1921 12.8823L33.4669 13.9019C33.1397 13.8354 32.8043 13.8208 32.4609 13.8582C32.1146 13.8852 31.7304 13.9556 31.3081 14.0694C30.6902 14.2359 30.2733 14.4311 30.0574 14.655C29.8388 14.8685 29.7864 15.1865 29.9002 15.6087C30.0195 16.0516 30.2236 16.317 30.5124 16.4049C30.8087 16.4797 31.2041 16.4505 31.6985 16.3172C32.3885 16.1313 32.8757 15.8895 33.1601 15.5919C33.4548 15.2916 33.6405 14.9764 33.7172 14.6464L33.9444 15.1817L32.788 17.5316C32.5856 17.6414 32.379 17.7357 32.1682 17.8146C31.9603 17.9038 31.7533 17.9761 31.5473 18.0316Z" fill="black"/>
<path d="M41.3359 15.5806L37.2336 7.96147L39.5575 7.59923L40.0708 8.81468L41.9565 12.6014L42.3132 13.9546L42.4397 13.9349L42.3676 12.5374L43.0113 8.35633L43.1304 7.04232L45.4543 6.68008L43.8654 15.1863L41.3359 15.5806Z" fill="black"/>
<path d="M49.0034 10.3851C48.9537 9.34099 49.0847 8.50183 49.3963 7.86765C49.718 7.22231 50.1652 6.74721 50.7381 6.44233C51.3211 6.12629 51.9855 5.95054 52.7313 5.91508C53.5837 5.87456 54.2891 6.00121 54.8477 6.29501C55.4058 6.57816 55.8259 6.99068 56.1079 7.53257C56.39 8.07445 56.5485 8.71298 56.5834 9.44815C56.5946 9.68255 56.5945 9.90681 56.5834 10.1209C56.5722 10.335 56.5572 10.5813 56.5384 10.8599L50.5452 11.1448L50.5224 10.6653L51.9121 9.57411L54.5332 9.44951C54.5129 9.02332 54.4485 8.67933 54.3399 8.41752C54.2309 8.14506 54.0508 7.95072 53.7996 7.83452C53.548 7.70766 53.1931 7.65512 52.735 7.6769C52.3301 7.69614 52.0084 7.78085 51.7699 7.93101C51.531 8.07051 51.361 8.31353 51.26 8.66005C51.1696 9.00606 51.1397 9.49871 51.1701 10.138C51.1964 10.692 51.2605 11.1428 51.3625 11.4904C51.4639 11.8273 51.6095 12.082 51.7993 12.2545C51.9997 12.4265 52.2559 12.5371 52.5679 12.5864C52.8906 12.6351 53.2757 12.6488 53.7232 12.6276C54.0961 12.6098 54.4626 12.571 54.8229 12.5112C55.1826 12.4407 55.5555 12.3109 55.9416 12.1216L56.2689 12.2663L56.3464 13.8964C56.0536 14.0278 55.7172 14.1399 55.3372 14.2327C54.9572 14.3255 54.4688 14.3861 53.8722 14.4145C53.2436 14.4444 52.6441 14.4141 52.0738 14.3238C51.5142 14.2329 51.0089 14.0487 50.5579 13.7712C50.117 13.4824 49.7556 13.0671 49.4735 12.5252C49.2016 11.9722 49.0449 11.2588 49.0034 10.3851Z" fill="black"/>
<path d="M60.2561 14.0882L60.4803 12.8178L60.762 7.22493L60.6666 5.93851L62.3764 6.02463L62.5846 6.98031L62.9202 6.99721L62.6216 12.9257L62.6691 14.2097L60.2561 14.0882ZM61.9781 9.48096L62.0634 7.78711L63.7179 6.10821C64.0765 5.98743 64.4475 5.9367 64.831 5.95601C65.0441 5.96674 65.2507 5.99851 65.451 6.05132C65.6518 6.09347 65.8512 6.16226 66.0494 6.25768L65.9552 8.12731L65.6276 8.27101C65.4092 8.15321 65.1996 8.07324 64.9988 8.03108C64.798 7.98893 64.6177 7.96383 64.4579 7.95578C64.0212 7.93378 63.5678 8.02843 63.0979 8.23972C62.6387 8.45156 62.2654 8.8653 61.9781 9.48096Z" fill="black"/>
<path d="M76.7465 7.62406L76.1492 9.40224L73.359 15.2232L70.7767 14.7572L70.0891 3.25216L72.5454 3.69547L72.4751 4.62576L72.5834 10.8723L72.3998 12.7902L72.5573 12.8186L73.0872 10.9632L76.2645 4.52925L78.4689 4.92708L79.1651 12.0601L79.013 13.9837L79.1705 14.0121L79.6689 12.1511L81.9854 6.34215L82.2447 5.44595L84.7011 5.88926L80.0351 16.4281L77.4528 15.9621L76.842 9.52728L76.9039 7.65247L76.7465 7.62406Z" fill="black"/>
<path d="M89.9774 9.58991C89.6513 9.48891 89.4078 9.3018 89.2467 9.02858C89.0889 8.74518 89.0652 8.42517 89.1756 8.06855C89.2861 7.71194 89.485 7.46646 89.7723 7.33211C90.0627 7.18758 90.3709 7.16581 90.697 7.26681C91.023 7.36781 91.265 7.56001 91.4229 7.84342C91.5839 8.11664 91.6092 8.43155 91.4987 8.78817C91.3883 9.14478 91.1878 9.39536 90.8974 9.53989C90.6101 9.67423 90.3034 9.69091 89.9774 9.58991ZM86.1969 18.1171L86.7285 16.9418L88.234 12.0816L86.4917 11.5419L87.0219 9.83017L90.9651 11.0516L90.4335 12.227L88.7765 17.5762L88.5506 18.8462L86.1969 18.1171Z" fill="black"/>
<path d="M91.5406 19.7872L92.1198 18.3646L96.9969 15.7205L97.6993 15.5227L97.7355 15.4338L95.1274 14.3719L94.0303 14.0116L94.7362 12.2778L100.916 14.7937L100.336 16.2164L95.3759 18.8956L94.6976 19.0341L94.6614 19.123L97.4918 20.2753L98.589 20.6357L97.8831 22.3695L91.5406 19.7872Z" fill="black"/>
<path d="M102.382 19.9037C102.875 18.9817 103.417 18.3283 104.01 17.9435C104.617 17.5543 105.245 17.3757 105.893 17.4076C106.555 17.4351 107.216 17.6248 107.875 17.9767C108.627 18.3788 109.168 18.8492 109.497 19.3878C109.831 19.917 109.98 20.4866 109.945 21.0964C109.909 21.7063 109.718 22.3358 109.371 22.9849C109.26 23.1919 109.145 23.3844 109.026 23.5625C108.907 23.7406 108.767 23.9444 108.608 24.1739L103.317 21.3463L103.543 20.9229L105.295 20.6984L107.61 21.935C107.811 21.5587 107.932 21.2304 107.973 20.9499C108.019 20.6601 107.964 20.4009 107.808 20.1724C107.657 19.9345 107.379 19.7074 106.975 19.4913C106.617 19.3002 106.297 19.2081 106.016 19.2147C105.739 19.212 105.468 19.3335 105.204 19.5793C104.949 19.8301 104.671 20.2377 104.369 20.8022C104.108 21.2914 103.932 21.7113 103.841 22.062C103.756 22.4032 103.75 22.6966 103.824 22.942C103.908 23.1924 104.072 23.4187 104.314 23.6209C104.566 23.8282 104.89 24.0374 105.285 24.2485C105.614 24.4245 105.949 24.5791 106.289 24.7124C106.634 24.8362 107.021 24.9159 107.449 24.9514L107.656 25.2433L106.887 26.6827C106.568 26.6454 106.222 26.5693 105.848 26.4541C105.474 26.339 105.024 26.1407 104.497 25.8592C103.942 25.5626 103.443 25.2293 102.999 24.8594C102.566 24.4945 102.226 24.0773 101.981 23.6078C101.751 23.1339 101.653 22.592 101.689 21.9822C101.739 21.3679 101.97 20.6751 102.382 19.9037Z" fill="black"/>
</svg>
