<svg width="115" height="70" viewBox="0 0 115 70" fill="none" xmlns="http://www.w3.org/2000/svg">
<path d="M85.9578 41.5449C85.9578 46.8535 83.0032 51.5953 78.3659 54.7276C73.8785 58.4314 67.7611 60.8944 60.9662 60.8944C49.9449 60.8944 45.6769 58.3744 42.3752 55.6928C42.3586 55.6792 42.3391 55.6655 42.3225 55.6518C42.3141 55.645 42.303 55.6382 42.2947 55.6291L42.2975 55.6223C41.8282 55.2148 41.5283 54.6707 41.5283 54.0652C41.5283 52.8086 42.7723 51.7888 44.3051 51.7888H50.2642C48.1899 48.9341 47.082 45.3943 47.082 41.5449C47.082 41.1533 47.1097 40.7709 47.1319 40.3862L47.082 40.4066C38.7514 40.4066 33.1978 31.3009 33.1978 26.7481C33.1978 25.4915 34.4418 24.4717 35.9746 24.4717C35.9746 24.4717 64.6399 24.4717 65.1314 24.4717C76.1777 24.4717 85.1914 31.5263 85.8883 40.4385C85.8883 40.4385 85.9578 41.3445 85.9578 41.5449Z" fill="#8D6E63"/>
<path opacity="0.3" d="M43.6109 30.1627C43.6109 29.2203 44.5439 28.4554 45.6935 28.4554C46.8432 28.4554 47.7762 29.2203 47.7762 30.1627C47.7762 31.1052 46.8432 31.8701 45.6935 31.8701C44.5439 31.8701 43.6109 31.1052 43.6109 30.1627ZM63.743 51.7888C63.7625 50.621 64.2567 44.9595 72.0735 44.9595V40.4066C61.0911 40.4066 58.1893 47.8528 58.1893 51.7888H44.3051C42.7779 51.7888 41.5283 52.8131 41.5283 54.0652C41.5283 54.6775 41.8337 55.2034 42.3058 55.6131V55.6382C42.3058 55.6382 42.3058 55.6382 42.3336 55.661L42.3613 55.6837C45.6658 58.3676 49.9421 60.8944 60.9662 60.8944C67.7694 60.8944 73.8785 58.4359 78.3742 54.7253C79.6543 53.8603 80.7901 52.8814 81.7925 51.7888H63.743ZM35.9746 24.4717C34.4473 24.4717 33.1978 25.4961 33.1978 26.7481C33.1978 27.3855 33.3088 28.114 33.531 28.8879C33.8642 28.979 34.2252 29.0245 34.5862 29.0245C36.891 29.0245 38.7514 27.4993 38.7514 25.6099C38.7514 25.2001 38.6681 24.8359 38.5015 24.4717C36.9465 24.4717 35.9746 24.4717 35.9746 24.4717Z" fill="black"/>
<path d="M7.95151 24.4853L7.41683 23.3338L2.82724 16.0136L2.00203 14.9962L6.30172 13.0106C7.2798 12.5589 8.18484 12.409 9.01684 12.5609C9.85285 12.6993 10.523 13.1706 11.0273 13.9749C11.3389 14.472 11.4773 14.9616 11.4425 15.4439C11.4174 15.9216 11.1443 16.3624 10.6232 16.7662L10.7082 16.9017C11.3379 16.7508 11.9548 16.7689 12.5592 16.956C13.1675 17.1295 13.6983 17.5778 14.1516 18.3008C14.5313 18.9063 14.6996 19.4637 14.6568 19.9729C14.6083 20.4731 14.3937 20.9277 14.0132 21.3365C13.6326 21.7453 13.1179 22.0995 12.4691 22.3991L7.95151 24.4853ZM9.11544 21.92L10.5826 21.2425C11.3282 20.8982 11.805 20.5731 12.0129 20.2674C12.2208 19.9616 12.1774 19.5737 11.8828 19.1038C11.5881 18.6339 11.2292 18.3801 10.806 18.3424C10.3925 18.3003 9.80805 18.4537 9.0527 18.8025L7.58558 19.48L9.11544 21.92ZM6.59966 17.9075L7.89247 17.3105C8.48319 17.0377 8.91037 16.753 9.174 16.4565C9.43197 16.1509 9.40796 15.7541 9.10199 15.2661C8.79601 14.7781 8.42339 14.5423 7.98411 14.5586C7.53916 14.566 7.02132 14.7061 6.4306 14.9789L5.13779 15.5759L6.59966 17.9075Z" fill="black"/>
<path d="M17.1173 16.1553C16.6832 15.2043 16.4995 14.3931 16.5661 13.7215C16.6384 13.0368 16.895 12.4749 17.3359 12.0356C17.7825 11.5832 18.3597 11.2381 19.0674 11.0001C19.8762 10.7282 20.6049 10.6511 21.2534 10.7688C21.8975 10.8768 22.4561 11.1423 22.9291 11.5653C23.402 11.9883 23.7914 12.5346 24.097 13.2041C24.1945 13.4176 24.2774 13.6248 24.3457 13.8256C24.4141 14.0265 24.4907 14.2582 24.5756 14.5207L18.8884 16.4328L18.6891 15.9962L19.6287 14.6057L22.1159 13.7695C21.9387 13.3813 21.7493 13.0813 21.5475 12.8693C21.3414 12.6476 21.0955 12.5176 20.8098 12.4794C20.5196 12.4314 20.1572 12.4805 19.7224 12.6267C19.3382 12.7559 19.0587 12.9226 18.8837 13.1269C18.7043 13.3216 18.6299 13.5928 18.6604 13.9407C18.7011 14.2852 18.8543 14.7486 19.1201 15.3308C19.3504 15.8354 19.5791 16.2342 19.8062 16.5272C20.0288 16.8105 20.2637 17.0057 20.5109 17.1129C20.7682 17.2167 21.0567 17.2484 21.3765 17.208C21.7064 17.1643 22.0836 17.071 22.5083 16.9282C22.8622 16.8092 23.2021 16.6726 23.5281 16.5182C23.8498 16.3541 24.1622 16.1315 24.4654 15.8505L24.8351 15.894L25.5129 17.3787C25.2785 17.5806 24.9948 17.7767 24.6619 17.967C24.3289 18.1573 23.8793 18.3476 23.3131 18.538C22.7166 18.7386 22.1261 18.8756 21.5415 18.949C20.967 19.019 20.4105 18.9879 19.8719 18.8556C19.3391 18.7101 18.8361 18.4259 18.3631 18.0029C17.8958 17.5668 17.4805 16.951 17.1173 16.1553Z" fill="black"/>
<path d="M33.8371 15.5809L33.2534 14.5206L32.1366 10.9639C32.0247 10.6077 31.8941 10.3159 31.7447 10.0885C31.6056 9.85863 31.3766 9.71511 31.0577 9.65788C30.7459 9.58807 30.2783 9.62527 29.6547 9.76948C29.3014 9.8512 28.9732 9.95984 28.6703 10.0954C28.3745 10.2184 28.0723 10.392 27.7637 10.6162L27.404 10.5356L26.9246 9.00912C27.334 8.75072 27.7453 8.55189 28.1586 8.41264C28.5719 8.27339 28.9344 8.16771 29.2462 8.09561C30.2958 7.85286 31.1396 7.78871 31.7775 7.90317C32.4225 8.00504 32.9293 8.2699 33.2977 8.69773C33.6629 9.11539 33.9574 9.6804 34.1811 10.3928L35.2931 13.9343L35.8013 15.1267L33.8371 15.5809ZM31.7123 16.2688C31.2238 16.3818 30.7234 16.4211 30.211 16.3868C29.7058 16.3399 29.245 16.1681 28.8286 15.8715C28.409 15.5646 28.0921 15.0703 27.878 14.3884C27.7055 13.8389 27.6668 13.3784 27.762 13.0071C27.8644 12.6232 28.0511 12.3126 28.3221 12.0753C28.5932 11.8379 28.913 11.6494 29.2815 11.5095C29.6468 11.3596 30.0166 11.2413 30.3907 11.1548C30.5674 11.1139 30.7612 11.0745 30.9723 11.0366C31.1801 10.9886 31.3964 10.9495 31.621 10.9194L33.2037 11.2738L33.52 12.2813C33.1843 12.2061 32.8422 12.1815 32.4937 12.2075C32.1419 12.2234 31.753 12.2806 31.3269 12.3791C30.7034 12.5233 30.2857 12.7018 30.0738 12.9146C29.8587 13.1171 29.8167 13.427 29.9477 13.8443C30.0851 14.2819 30.3025 14.5482 30.5999 14.6431C30.9044 14.7255 31.3061 14.709 31.8049 14.5937C32.5012 14.4326 32.9889 14.2107 33.2679 13.9278C33.5573 13.6426 33.7353 13.3395 33.8017 13.0184L34.0522 13.55L32.9582 15.8169C32.7559 15.9183 32.5489 16.0044 32.337 16.0752C32.1284 16.1562 31.9201 16.2208 31.7123 16.2688Z" fill="black"/>
<path d="M41.3217 14.279L37.009 6.63217L39.3402 6.32031L39.8861 7.53728L41.8753 11.3347L42.2668 12.6852L42.3937 12.6682L42.2877 11.2795L42.8358 7.14269L42.9243 5.84086L45.2555 5.52901L43.8591 13.9395L41.3217 14.279Z" fill="black"/>
<path d="M48.7723 9.31509C48.7145 8.27135 48.839 7.43367 49.1459 6.80204C49.4628 6.15932 49.9066 5.68754 50.4775 5.38672C51.0584 5.07481 51.7219 4.90364 52.4679 4.8732C53.3205 4.83841 54.0275 4.96969 54.5887 5.26702C55.1494 5.55371 55.5729 5.96874 55.8594 6.51212C56.1459 7.0555 56.3094 7.69463 56.3502 8.4295C56.3631 8.66381 56.3649 8.8879 56.3553 9.10178C56.3458 9.31566 56.3328 9.5617 56.3161 9.83991L50.3211 10.0845L50.2946 9.60524L51.6767 8.5241L54.2985 8.41714C54.2749 7.99112 54.2078 7.64694 54.0971 7.3846C53.9859 7.1116 53.8041 6.9162 53.5519 6.7984C53.2991 6.66995 52.9436 6.61507 52.4853 6.63377C52.0803 6.65029 51.7591 6.73278 51.5216 6.88124C51.2836 7.01904 51.1154 7.26074 51.017 7.60633C50.9293 7.95149 50.9032 8.44358 50.9386 9.0826C50.9692 9.63642 51.0369 10.0873 51.1417 10.4353C51.2458 10.7726 51.3935 11.0281 51.5847 11.2018C51.7866 11.375 52.0438 11.4873 52.3564 11.5386C52.6797 11.5894 53.0652 11.6057 53.5128 11.5875C53.8858 11.5723 54.2523 11.536 54.6123 11.4786C54.9717 11.4105 55.3439 11.2833 55.7288 11.0968L56.0574 11.2435L56.1476 12.873C55.8557 13.0023 55.52 13.1121 55.1404 13.2023C54.7609 13.2925 54.2727 13.3498 53.6758 13.3741C53.047 13.3998 52.447 13.3655 51.8756 13.2714C51.3149 13.1769 50.8078 12.9894 50.3543 12.7091C49.9109 12.4176 49.546 12.0002 49.2595 11.4568C48.9831 10.9023 48.8207 10.1884 48.7723 9.31509Z" fill="black"/>
<path d="M59.8812 13.0683L60.1161 11.7974L60.4442 6.207L60.3593 4.92229L62.0697 4.99622L62.2702 5.94966L62.6059 5.96417L62.2581 11.89L62.295 13.1726L59.8812 13.0683ZM61.6425 8.45259L61.7419 6.7595L63.4115 5.07024C63.7713 4.94701 64.143 4.89369 64.5267 4.91027C64.7398 4.91948 64.9464 4.94976 65.1464 5.00111C65.347 5.04181 65.546 5.10912 65.7435 5.20306L65.6338 7.07185L65.3047 7.21775C65.0872 7.1016 64.8781 7.02317 64.6775 6.98247C64.4769 6.94178 64.2967 6.91797 64.1368 6.91106C63.6999 6.89218 63.2454 6.98996 62.7735 7.20442C62.3121 7.41933 61.9351 7.83539 61.6425 8.45259Z" fill="black"/>
<path d="M76.4422 6.36048L75.7915 8.13512L72.8188 13.9639L70.2257 13.5622L69.8426 2.18562L72.3092 2.56766L72.2131 3.49049L72.1537 9.67345L71.9167 11.5768L72.0748 11.6013L72.6597 9.75182L76.0394 3.3071L78.253 3.64995L78.7629 10.6971L78.5575 12.6054L78.7156 12.6299L79.2689 10.7755L81.7632 4.96968L82.0491 4.07624L84.5157 4.45828L79.5229 15.0022L76.9298 14.6006L76.4872 8.24287L76.6003 6.38497L76.4422 6.36048Z" fill="black"/>
<path d="M89.6798 7.85319C89.3499 7.76549 89.1078 7.59117 88.9534 7.33021C88.8027 7.05923 88.7907 6.74815 88.9174 6.39699C89.0442 6.04584 89.2571 5.80007 89.5564 5.6597C89.8592 5.5093 90.1756 5.47794 90.5054 5.56564C90.8353 5.65333 91.0756 5.83268 91.2264 6.10366C91.3807 6.36461 91.3945 6.67067 91.2678 7.02183C91.141 7.37299 90.9262 7.62377 90.6234 7.77418C90.3242 7.91455 90.0096 7.94088 89.6798 7.85319ZM85.4831 16.2874L86.0723 15.1246L87.7997 10.3388L86.0369 9.87013L86.6453 8.18456L90.6348 9.24514L90.0456 10.408L88.1443 15.6754L87.8644 16.9205L85.4831 16.2874Z" fill="black"/>
<path d="M90.7482 17.5729L91.4066 16.1851L96.5675 13.4721L97.3032 13.2573L97.3444 13.1706L94.686 12.2417L93.5642 11.934L94.3666 10.2427L100.665 12.4435L100.007 13.8312L94.758 16.581L94.0497 16.7379L94.0085 16.8247L96.8935 17.8327L98.0153 18.1404L97.2129 19.8318L90.7482 17.5729Z" fill="black"/>
<path d="M101.798 17.1069C102.35 16.2195 102.945 15.5843 103.582 15.2014C104.235 14.8139 104.901 14.6247 105.581 14.6338C106.276 14.6383 106.963 14.7962 107.642 15.1075C108.417 15.4632 108.968 15.8902 109.293 16.3886C109.624 16.878 109.759 17.4114 109.699 17.989C109.639 18.5666 109.414 19.1678 109.025 19.7926C108.901 19.9918 108.773 20.1775 108.64 20.3497C108.508 20.5219 108.354 20.719 108.179 20.9411L102.725 18.4401L102.979 18.0326L104.829 17.7636L107.214 18.8574C107.439 18.4952 107.579 18.1809 107.633 17.9145C107.692 17.639 107.644 17.3959 107.489 17.1849C107.339 16.965 107.056 16.7594 106.639 16.5682C106.27 16.3992 105.938 16.3225 105.642 16.3379C105.351 16.3443 105.062 16.4679 104.775 16.7088C104.498 16.9541 104.19 17.3484 103.852 17.8917C103.558 18.3625 103.358 18.7652 103.249 19.0996C103.146 19.4249 103.129 19.7023 103.198 19.9318C103.277 20.1658 103.44 20.3744 103.687 20.5577C103.944 20.7454 104.277 20.9326 104.684 21.1194C105.023 21.275 105.369 21.4103 105.721 21.5252C106.079 21.6311 106.482 21.6939 106.931 21.7135L107.138 21.9828L106.275 23.3682C105.942 23.3433 105.581 23.2825 105.192 23.1858C104.804 23.0891 104.338 22.9163 103.795 22.6673C103.223 22.405 102.711 22.1062 102.259 21.7709C101.817 21.4401 101.476 21.0568 101.236 20.6209C101.012 20.1805 100.93 19.6715 100.99 19.0939C101.066 18.5117 101.335 17.8494 101.798 17.1069Z" fill="black"/>
</svg>
