<svg width="126" height="202" viewBox="0 0 126 202" fill="none" xmlns="http://www.w3.org/2000/svg">
<rect x="13.3806" y="58.585" width="79.7047" height="76.9385" rx="38.4693" fill="#66A865"/>
<path d="M73.1592 84.2311C73.1592 73.6081 81.7708 64.9965 92.3938 64.9965H93.0854C93.0854 75.6194 84.4737 84.2311 73.8507 84.2311H73.1592Z" fill="#66A865"/>
<path d="M41.2633 77.3498C31.3937 76.4515 24.1739 67.7274 25.1374 57.8639L25.7683 57.9213C35.6379 58.8196 42.8578 67.5438 41.8943 77.4073L41.2633 77.3498Z" fill="#66A865"/>
<path d="M26.3341 109.503C18.5237 115.837 6.7537 114.893 0.151657 107.307C7.96211 100.973 19.7321 101.917 26.3341 109.503Z" fill="#66A865"/>
<path d="M100.258 115.63C92.4473 121.964 80.6773 121.02 74.0752 113.434C81.8857 107.1 93.6557 108.044 100.258 115.63Z" fill="#66A865"/>
<rect width="77.6325" height="79.0289" rx="38.8162" transform="matrix(-0.510827 0.859684 -0.874855 -0.484385 140.91 108.744)" fill="#66A865"/>
<path d="M88.4267 146.208C97.8041 151.4 100.967 163.079 95.4918 172.294L95.1864 172.125C85.809 166.933 82.6458 155.254 88.1213 146.039L88.4267 146.208Z" fill="#66A865"/>
<path d="M109.809 123.255C115.729 115.161 127.207 113.153 135.445 118.768L135.709 118.947C129.789 127.04 118.311 129.049 110.073 123.434L109.809 123.255Z" fill="#66A865"/>
<path d="M88.7095 94.2567C86.8925 84.506 93.6391 75.1742 103.709 73.4255C105.526 83.1762 98.7798 92.508 88.7095 94.2567Z" fill="#66A865"/>
<path d="M46.4232 153.107C44.6061 143.356 51.3528 134.024 61.423 132.276C63.2401 142.026 56.4934 151.358 46.4232 153.107Z" fill="#66A865"/>
<rect width="77.6325" height="79.0289" rx="38.8162" transform="matrix(-0.510827 0.859684 -0.874855 -0.484385 178.77 81.3352)" fill="#66A865"/>
<path d="M126.287 118.799C135.664 123.991 138.827 135.67 133.352 144.884L133.046 144.715C123.669 139.523 120.506 127.844 125.981 118.629L126.287 118.799Z" fill="#66A865"/>
<path d="M126.569 66.8474C124.752 57.0966 131.499 47.7649 141.569 46.0162C143.386 55.7669 136.639 65.0987 126.569 66.8474Z" fill="#66A865"/>
<path d="M84.283 125.698C82.4659 115.947 89.2126 106.615 99.2829 104.866C101.1 114.617 94.3533 123.949 84.283 125.698Z" fill="#66A865"/>
<rect width="72.6659" height="73.973" rx="36.3329" transform="matrix(-0.510827 0.859684 -0.874855 -0.484385 158.961 46.2001)" fill="#66A865"/>
<path d="M109.836 81.2668C118.613 86.1267 121.574 97.0586 116.449 105.684L116.163 105.526C107.385 100.666 104.425 89.7338 109.55 81.1085L109.836 81.2668Z" fill="#66A865"/>
<path d="M110.1 32.6392C108.4 23.5123 114.715 14.7776 124.141 13.1408C125.841 22.2677 119.526 31.0025 110.1 32.6392Z" fill="#66A865"/>
<path d="M70.5193 87.7244C68.8185 78.5975 75.1335 69.8628 84.5596 68.226C86.2604 77.3529 79.9453 86.0877 70.5193 87.7244Z" fill="#66A865"/>
<path fill-rule="evenodd" clip-rule="evenodd" d="M14.8141 87.0895C13.9281 90.3294 13.4551 93.7398 13.4551 97.2608C13.4551 99.3527 13.6221 101.406 13.9434 103.407C9.14556 102.967 4.17877 104.308 0.226074 107.514C4.5167 112.444 10.9901 114.568 17.1408 113.713C22.8717 125.808 34.7253 134.437 48.699 135.597C49.1139 136.795 49.5904 137.974 50.127 139.127C47.0028 143.006 45.526 148.1 46.4976 153.313C50.3369 152.647 53.6931 150.878 56.2758 148.404C59.0235 151.444 62.3278 154.097 66.1476 156.212L67.3693 156.888C73.3907 160.222 79.9611 161.813 86.4697 161.827C87.9054 166.128 90.9161 169.926 95.2608 172.331L95.5662 172.5C97.8821 168.603 98.6526 164.265 98.0612 160.163C107.444 157.397 115.845 151.259 121.156 142.321C122.565 139.95 123.688 137.497 124.535 135.002C126.042 139.061 128.973 142.626 133.121 144.922L133.426 145.091C135.742 141.194 136.512 136.855 135.921 132.754C145.304 129.988 153.704 123.85 159.016 114.911C162.114 109.697 163.83 104.088 164.272 98.4906C167.919 97.3138 171.239 95.0307 173.643 91.7445L173.379 91.5648C170.431 89.5554 167.068 88.5223 163.693 88.3951C163.135 85.5448 162.245 82.7652 161.04 80.1147C160.153 83.2207 158.849 86.274 157.108 89.2028C149.291 102.359 134.783 109.447 120.298 108.649C120.111 108.986 119.918 109.322 119.719 109.656C108.768 128.086 84.687 134.608 65.9322 124.224L64.7105 123.547C58.6504 120.192 53.888 115.482 50.5867 110.021H50.0166C34.2997 110.021 20.7842 100.596 14.8141 87.0895Z" fill="#458244"/>
<path d="M87.5902 126.378H98.6326L107.632 209.354H78.4487L87.5902 126.378Z" fill="#93642D"/>
<path d="M87.5111 126.378H98.7115L103.454 171.038H82.7415L87.5111 126.378Z" fill="#714D22"/>
<path fill-rule="evenodd" clip-rule="evenodd" d="M84.4888 161.735C67.2194 149.733 65.1202 131.699 66.3284 123.827L74.1306 124.942C73.2355 130.775 74.8172 145.632 89.0974 155.557L84.4888 161.735Z" fill="#714D22"/>
<path fill-rule="evenodd" clip-rule="evenodd" d="M97.5322 149.554C114.802 137.551 116.901 119.517 115.693 111.645L107.89 112.761C108.785 118.593 107.204 133.45 92.9236 143.375L97.5322 149.554Z" fill="#714D22"/>
<rect width="55.6285" height="56.6291" rx="27.8142" transform="matrix(-0.510827 0.859684 -0.874855 -0.484385 127.485 97.288)" fill="#66A865"/>
<path d="M89.877 124.133C96.5965 127.853 98.8631 136.222 94.9396 142.825L94.7207 142.704C88.0012 138.983 85.7346 130.615 89.6581 124.012L89.877 124.133Z" fill="#66A865"/>
<path d="M105.199 107.685C109.441 101.886 117.665 100.447 123.569 104.47L123.757 104.599C119.516 110.398 111.291 111.838 105.388 107.814L105.199 107.685Z" fill="#66A865"/>
<path d="M90.0795 86.9065C88.7774 79.9196 93.6118 73.2328 100.828 71.9798C102.13 78.9667 97.2954 85.6535 90.0795 86.9065Z" fill="#66A865"/>
<path d="M59.7789 129.076C58.4769 122.089 63.3113 115.403 70.5273 114.15C71.8293 121.137 66.9949 127.823 59.7789 129.076Z" fill="#66A865"/>
<rect width="74.5504" height="72.0734" rx="36.0367" transform="matrix(0.989839 0.142192 -0.152366 0.988324 33.949 9.09741)" fill="#83C082"/>
<path d="M85.633 40.7917C87.1493 30.9567 96.3635 24.1308 106.214 25.5458L106.827 25.6339C105.31 35.4689 96.0961 42.2948 86.246 40.8798L85.633 40.7917Z" fill="#83C082"/>
<path d="M57.1097 30.1846C48.0867 28.0371 42.6366 18.9972 44.9365 9.99344L45.4878 10.1247C54.5108 12.2722 59.9609 21.3121 57.661 30.3159L57.1097 30.1846Z" fill="#83C082"/>
<path d="M38.6739 57.9613C30.5365 62.7883 19.7764 60.3474 14.7467 52.4466C22.8841 47.6196 33.6442 50.0605 38.6739 57.9613Z" fill="#83C082"/>
<path d="M106.24 73.4652C98.1024 78.2922 87.3423 75.8513 82.3126 67.9505C90.45 63.1235 101.21 65.5644 106.24 73.4652Z" fill="#83C082"/>
</svg>
