<svg width="100" height="228" viewBox="0 0 100 228" fill="none" xmlns="http://www.w3.org/2000/svg">
<rect x="40.6436" y="124.77" width="22.2856" height="102.852" fill="#93642D"/>
<rect x="40.7031" y="86.7427" width="22.2856" height="102.852" fill="#714D22"/>
<path d="M100 128.338C100 155.246 77.7178 177.06 50.2313 177.06C22.7449 177.06 0.462646 155.246 0.462646 128.338C0.462646 101.429 22.7448 47.1342 50.2313 47.1342C77.7178 47.1342 100 101.429 100 128.338Z" fill="#66A865"/>
<path fill-rule="evenodd" clip-rule="evenodd" d="M98.4923 116.917C93.7885 139.038 73.7612 155.659 49.7687 155.659C25.7762 155.659 5.7489 139.038 1.04505 116.917C0.360041 121.055 0 124.918 0 128.338C0 155.247 22.2822 177.06 49.7687 177.06C77.2552 177.06 99.5374 155.247 99.5374 128.338C99.5374 124.918 99.1774 121.055 98.4923 116.917Z" fill="#458244"/>
<path d="M91.8558 65.9555C91.8558 87.8112 73.4028 105.529 50.6399 105.529C27.877 105.529 9.42407 87.8112 9.42407 65.9555C9.42407 44.0998 27.877 0 50.6399 0C73.4028 0 91.8558 44.0998 91.8558 65.9555Z" fill="#83C082"/>
</svg>
