<svg width="225" height="232" viewBox="0 0 225 232" fill="none" xmlns="http://www.w3.org/2000/svg">
<rect x="10.4431" y="66.98" width="99.0688" height="87.9637" rx="43.9818" fill="#66A865"/>
<path d="M84.7446 96.3013C84.7446 84.156 94.5903 74.3104 106.736 74.3104H109.512C109.512 86.4556 99.6662 96.3013 87.5209 96.3013H84.7446Z" fill="#66A865"/>
<path d="M43.3495 88.2875C32.0488 87.3414 23.8585 77.4327 25.0561 66.1558L27.5906 66.368C38.8914 67.3141 47.0816 77.2228 45.8841 88.4997L43.3495 88.2875Z" fill="#66A865"/>
<path d="M26.1864 125.461C16.6164 132.6 2.20612 131.357 -5.99988 122.684L-5.64262 122.418C3.92734 115.279 18.3376 116.522 26.5436 125.194L26.1864 125.461Z" fill="#66A865"/>
<path d="M118.069 132.466C108.499 139.605 94.0892 138.362 85.8832 129.689L86.2404 129.423C95.8104 122.284 110.221 123.527 118.427 132.199L118.069 132.466Z" fill="#66A865"/>
<rect width="90.8393" height="96.4389" rx="45.4197" transform="matrix(-0.542621 0.839978 -0.891093 -0.453821 168.956 124.327)" fill="#66A865"/>
<path d="M104.589 167.601C115.766 173.293 119.309 186.448 112.503 196.983L111.256 196.348C100.079 190.656 96.5362 177.501 103.342 166.966L104.589 167.601Z" fill="#66A865"/>
<path d="M130.299 140.917C137.657 131.664 151.587 129.157 161.414 135.317L162.491 135.992C155.133 145.245 141.202 147.752 131.376 141.592L130.299 140.917Z" fill="#66A865"/>
<path d="M104.073 107.763C101.815 96.6155 110.057 85.9693 122.484 83.9845L122.717 83.9473C124.976 95.0953 116.733 105.741 104.306 107.726L104.073 107.763Z" fill="#66A865"/>
<path d="M51.5132 175.047C49.2547 163.899 57.4976 153.253 69.9243 151.268L70.1573 151.231C72.4158 162.379 64.1729 173.025 51.7463 175.01L51.5132 175.047Z" fill="#66A865"/>
<rect width="90.8393" height="96.4389" rx="45.4197" transform="matrix(-0.542621 0.839978 -0.891093 -0.453821 216.013 92.9904)" fill="#66A865"/>
<path d="M151.647 136.264C162.823 141.956 166.366 155.111 159.561 165.646L158.313 165.011C147.137 159.319 143.594 146.164 150.4 135.629L151.647 136.264Z" fill="#66A865"/>
<path d="M177.357 109.58C184.714 100.327 198.645 97.8199 208.471 103.98L209.548 104.655C202.19 113.908 188.26 116.415 178.433 110.255L177.357 109.58Z" fill="#66A865"/>
<path d="M151.13 76.4265C148.872 65.2785 157.115 54.6323 169.542 52.6475L169.775 52.6103C172.033 63.7583 163.79 74.4045 151.363 76.3893L151.13 76.4265Z" fill="#66A865"/>
<path d="M98.5709 143.71C96.3123 132.562 104.555 121.916 116.982 119.931L117.215 119.894C119.473 131.042 111.231 141.688 98.8039 143.673L98.5709 143.71Z" fill="#66A865"/>
<rect width="85.0278" height="90.2692" rx="42.5139" transform="matrix(-0.542621 0.839978 -0.891093 -0.453821 191.393 52.8204)" fill="#66A865"/>
<path d="M131.144 93.3258C141.605 98.6536 144.922 110.967 138.551 120.828L137.384 120.233C126.923 114.906 123.606 102.592 129.976 92.7311L131.144 93.3258Z" fill="#66A865"/>
<path d="M155.209 68.3486C162.096 59.6877 175.135 57.341 184.333 63.1072L185.341 63.739C178.454 72.4 165.415 74.7467 156.217 68.9805L155.209 68.3486Z" fill="#66A865"/>
<path d="M130.661 37.3163C128.547 26.8815 136.262 16.9164 147.894 15.0586L148.112 15.0238C150.226 25.4585 142.51 35.4236 130.879 37.2815L130.661 37.3163Z" fill="#66A865"/>
<path d="M81.4635 100.295C79.3495 89.8604 87.0651 79.8953 98.6967 78.0375L98.9148 78.0027C101.029 88.4374 93.3133 98.4025 81.6816 100.26L81.4635 100.295Z" fill="#66A865"/>
<path fill-rule="evenodd" clip-rule="evenodd" d="M12.0176 99.8348C11.0509 103.46 10.5357 107.269 10.5357 111.198C10.5357 113.551 10.7205 115.861 11.0764 118.115C5.24496 117.607 -0.759196 119.08 -5.55022 122.654L-5.90747 122.92C-0.597298 128.532 7.31091 131.033 14.8243 130.165C21.825 144.789 36.6695 154.942 53.9096 155.176C54.4351 156.618 55.0464 158.033 55.7418 159.412C52.1055 163.795 50.4285 169.471 51.606 175.283L51.839 175.246C56.3855 174.519 60.372 172.634 63.489 169.989C66.5452 172.989 70.1584 175.606 74.2943 177.713L79.284 180.254C86.1667 183.759 93.6944 185.441 101.215 185.474C102.93 190.06 106.387 194.057 111.348 196.584L112.596 197.219C115.427 192.836 116.468 187.999 115.912 183.435C127.383 180.155 137.75 173.014 144.403 162.715C146.08 160.118 147.443 157.442 148.502 154.724C150.287 159.063 153.657 162.829 158.406 165.247L159.653 165.882C162.485 161.499 163.525 156.662 162.969 152.098C174.44 148.818 184.807 141.677 191.46 131.378C195.312 125.416 197.506 119.034 198.166 112.69C202.597 111.284 206.659 108.641 209.641 104.891L208.564 104.216C205.247 102.137 201.462 101.045 197.62 100.867C196.937 97.4498 195.799 94.1342 194.228 90.9998C193.084 94.7459 191.379 98.4398 189.089 101.985C179.143 117.382 160.896 125.721 143.07 124.654C142.921 124.893 142.77 125.132 142.616 125.37C129.005 146.44 99.8503 154.293 77.4976 142.909L72.5079 140.367C65.4629 136.78 59.9345 131.709 56.0925 125.787H52.1461C34.2803 125.787 18.9024 115.135 12.0176 99.8348Z" fill="#458244"/>
<path d="M102.682 144.488H116.407L127.593 239.354H91.3193L102.682 144.488Z" fill="#93642D"/>
<path d="M102.583 144.488H116.505L122.399 195.548H96.655L102.583 144.488Z" fill="#714D22"/>
<path fill-rule="evenodd" clip-rule="evenodd" d="M98.8267 184.912C77.3617 171.19 74.7526 150.571 76.2543 141.571L85.9521 142.846C84.8395 149.515 86.8054 166.501 104.555 177.848L98.8267 184.912Z" fill="#714D22"/>
<path fill-rule="evenodd" clip-rule="evenodd" d="M115.039 170.984C136.504 157.262 139.113 136.644 137.611 127.643L127.914 128.919C129.026 135.587 127.06 152.573 109.311 163.92L115.039 170.984Z" fill="#714D22"/>
<rect width="65.092" height="69.1044" rx="32.546" transform="matrix(-0.542621 0.839978 -0.891093 -0.453821 152.268 111.229)" fill="#66A865"/>
<path d="M106.146 142.237C114.155 146.316 116.693 155.742 111.817 163.291L110.923 162.836C102.914 158.758 100.375 149.331 105.252 141.782L106.146 142.237Z" fill="#66A865"/>
<path d="M124.568 123.116C129.841 116.486 139.823 114.69 146.864 119.104L147.636 119.588C142.363 126.218 132.381 128.014 125.34 123.6L124.568 123.116Z" fill="#66A865"/>
<path d="M105.776 99.3601C104.157 91.3719 110.064 83.7432 118.968 82.321L119.135 82.2943C120.754 90.2825 114.847 97.9112 105.943 99.3334L105.776 99.3601Z" fill="#66A865"/>
<path d="M68.1137 147.573C66.4953 139.585 72.4019 131.956 81.3063 130.534L81.4733 130.507C83.0917 138.495 77.1851 146.124 68.2806 147.546L68.1137 147.573Z" fill="#66A865"/>
<rect width="92.518" height="82.5752" rx="41.2876" transform="matrix(0.991383 0.130996 -0.165298 0.986244 36.0083 10.401)" fill="#83C082"/>
<path d="M100.249 46.637C102.134 35.3926 112.824 27.488 124.127 28.9815L126.592 29.3071C124.707 40.5515 114.016 48.4562 102.713 46.9627L100.249 46.637Z" fill="#83C082"/>
<path d="M63.2631 34.1744C52.8946 31.9044 46.8066 21.7194 49.6652 11.4254L51.8833 11.911C62.2518 14.181 68.3398 24.366 65.4812 34.66L63.2631 34.1744Z" fill="#83C082"/>
<path d="M41.5249 66.4614C31.5482 71.9049 18.3925 68.995 12.1409 59.962L12.497 59.7677C22.4737 54.3241 35.6294 57.234 41.8811 66.267L41.5249 66.4614Z" fill="#83C082"/>
<path d="M125.506 84.1871C115.529 89.6306 102.374 86.7207 96.1221 77.6877L96.4782 77.4934C106.455 72.0498 119.611 74.9597 125.862 83.9927L125.506 84.1871Z" fill="#83C082"/>
</svg>
