<svg width="58" height="137" viewBox="0 0 58 137" fill="none" xmlns="http://www.w3.org/2000/svg">
<rect x="23.5732" y="74.8885" width="12.9257" height="61.733" fill="#93642D"/>
<rect x="23.6077" y="52.0641" width="12.9257" height="61.733" fill="#714D22"/>
<path d="M58 77.0302C58 93.1811 45.0763 106.274 29.1342 106.274C13.192 106.274 0.268311 93.1811 0.268311 77.0302C0.268311 60.8793 13.192 28.2906 29.1341 28.2906C45.0763 28.2906 58 60.8793 58 77.0302Z" fill="#66A865"/>
<path fill-rule="evenodd" clip-rule="evenodd" d="M57.1256 70.175C54.3973 83.4527 42.7815 93.4285 28.8658 93.4285C14.9502 93.4285 3.33438 83.4527 0.606131 70.175C0.208825 72.6585 0 74.9772 0 77.0302C0 93.1811 12.9237 106.274 28.8658 106.274C44.808 106.274 57.7317 93.1811 57.7317 77.0302C57.7317 74.9772 57.5229 72.6585 57.1256 70.175Z" fill="#458244"/>
<path d="M53.2765 39.5874C53.2765 52.7055 42.5737 63.3398 29.3713 63.3398C16.1688 63.3398 5.46606 52.7055 5.46606 39.5874C5.46606 26.4693 16.1688 0 29.3713 0C42.5737 0 53.2765 26.4693 53.2765 39.5874Z" fill="#83C082"/>
</svg>
